<?xml version="1.0" encoding="utf-8"?>
<!-- Generator: Adobe Illustrator 22.0.0, SVG Export Plug-In . SVG Version: 6.00 Build 0)  -->
<svg version="1.1" id="Layer_1" xmlns="http://www.w3.org/2000/svg" xmlns:xlink="http://www.w3.org/1999/xlink" x="0px" y="0px"
	 viewBox="0 0 1280 1024" style="enable-background:new 0 0 1280 1024;" xml:space="preserve">
<style type="text/css">
	.st0{display:none;}
	.st1{display:inline;fill:none;stroke:#000000;stroke-width:7;stroke-miterlimit:10;}
	.st2{display:inline;fill:none;stroke:#000000;stroke-width:7;stroke-linecap:round;stroke-miterlimit:10;}
	.st3{fill:none;stroke:#000000;stroke-width:30;stroke-linecap:round;stroke-miterlimit:10;}
	.st4{stroke:#000000;stroke-width:7;stroke-linecap:round;stroke-miterlimit:10;}
	.st5{fill:none;stroke:#000000;stroke-width:25;stroke-linecap:round;stroke-miterlimit:10;}
	.st6{fill:none;stroke:#000000;stroke-width:23;stroke-linecap:round;stroke-miterlimit:10;}
	.st7{fill:none;stroke:#000000;stroke-width:60;stroke-linecap:round;stroke-miterlimit:10;}
	.st8{fill:none;stroke:#C1272D;stroke-width:5;stroke-linecap:round;stroke-miterlimit:10;}
	.st9{fill:none;stroke:#C1272D;stroke-width:7;stroke-linecap:round;stroke-miterlimit:10;}
</style>
<g id="Layer_1_1_" class="st0">
	<circle class="st1" cx="315.8" cy="203.4" r="137.5"/>
	<circle class="st1" cx="903.4" cy="203.4" r="137.5"/>
	<circle class="st1" cx="622.6" cy="504.7" r="137.5"/>
	<circle class="st1" cx="1000.1" cy="687.8" r="137.5"/>
	<circle class="st1" cx="293.1" cy="722.4" r="137.5"/>
	<line class="st2" x1="308.3" y1="669.8" x2="347.8" y2="709.3"/>
	<line class="st2" x1="308.3" y1="709.3" x2="347.8" y2="669.8"/>
	<line class="st2" x1="238.4" y1="669.8" x2="277.9" y2="709.3"/>
	<line class="st2" x1="238.4" y1="709.3" x2="277.9" y2="669.8"/>
	<line class="st2" x1="249.3" y1="759.8" x2="327.5" y2="759.8"/>
	<path class="st2" d="M287.7,761.7c-0.2,1.2-0.3,2.3-0.3,3.5c0,11.2,9.1,20.3,20.3,20.3s20.3-9.1,20.3-20.3c0-1.2-0.1-2.4-0.3-3.5
		H287.7z"/>
	<path class="st2" d="M293.1,792.2"/>
	<path class="st2" d="M304.4,189.9c-1.5-11.9-11.3-21-22.8-21.5c-12.4-0.6-23.7,8.9-25.2,21.9"/>
	<path class="st2" d="M375.2,189.9c-1.5-11.9-11.3-21-22.8-21.5c-12.4-0.6-23.7,8.9-25.2,21.9"/>
	<path class="st2" d="M269.2,220.4c2.7,21.4,20.3,37.6,40.9,38.6c22.2,1.1,42.5-16,45.1-39.2"/>
	<path class="st2" d="M963.5,739.1c2.3-19.8,19.5-34.3,38.4-33.4c17.5,0.8,32.4,14.6,34.8,32.8L963.5,739.1z"/>
	<circle class="st2" cx="862.6" cy="191.5" r="23.2"/>
	<circle class="st2" cx="944.2" cy="191.5" r="23.2"/>
	<circle class="st2" cx="959.3" cy="659.6" r="23.2"/>
	
		<ellipse transform="matrix(0.1602 -0.9871 0.9871 0.1602 223.0833 1581.4031)" class="st2" cx="1040.9" cy="659.6" rx="23.2" ry="23.2"/>
	<circle class="st2" cx="581.8" cy="494.2" r="23.2"/>
	<circle class="st2" cx="663.4" cy="494.2" r="23.2"/>
	<circle class="st2" cx="910" cy="264.2" r="16.9"/>
	<line class="st2" x1="558.7" y1="566.1" x2="680.2" y2="566.1"/>
</g>
<g id="Layer_2_1_">
	<g>
		<line class="st3" x1="733.1" y1="713.3" x2="642.7" y2="713.3"/>
		<circle class="st4" cx="688.2" cy="689.6" r="31.2"/>
		<line class="st5" x1="640" y1="713.3" x2="640" y2="805"/>
		<line class="st6" x1="672.2" y1="822.7" x2="672.2" y2="914.4"/>
		<line class="st6" x1="707.5" y1="822.4" x2="707.5" y2="914.1"/>
		<line class="st5" x1="736.2" y1="710.7" x2="736.2" y2="802.4"/>
		<line class="st7" x1="689.5" y1="728.1" x2="689.5" y2="819.8"/>
		<path class="st8" d="M655.2,695.6c2.4-2.1,18.7-16,40.7-13.2c13.1,1.7,21.7,8.4,25.3,11.6"/>
		<line class="st9" x1="689.5" y1="-782" x2="689.5" y2="678"/>
	</g>
</g>
</svg>
